<svg width="36" height="30" viewBox="0 0 36 30" fill="none" xmlns="http://www.w3.org/2000/svg">
<path d="M35.0511 22.8178L32.1678 6.35085C31.5508 2.83022 28.5155 0.263062 24.9685 0.263062H10.2248C5.16892 0.263062 3.40564 4.17569 3.0255 6.35085L0.156887 22.7279C-0.0214878 23.7506 0.0165265 24.8161 0.370352 25.7902C1.2593 28.2439 3.48313 29.7367 5.90143 29.7367C5.90143 29.7367 7.54189 29.7279 7.63254 29.7102C8.27732 29.5879 8.72179 29.0515 8.79344 28.4266C7.91618 27.2182 7.26117 25.8256 6.97167 24.2753L5.23033 14.9572C4.97446 13.5881 4.98031 12.1852 5.24641 10.8176C5.65872 8.70138 6.26256 5.69801 6.42339 5.41801L9.84321 23.73C10.4938 27.2123 13.5116 29.7353 17.0279 29.7353H29.0784C30.4075 29.7353 31.7409 29.3742 32.7994 28.5622C34.5993 27.1828 35.4283 24.9738 35.0511 22.8178ZM13.2104 9.10517C13.2104 8.29169 13.8654 7.63148 14.6725 7.63148H24.9071C25.7142 7.63148 26.3692 8.29169 26.3692 9.10517C26.3692 9.91864 25.7142 10.5789 24.9071 10.5789H14.6725C13.8654 10.5789 13.2104 9.91864 13.2104 9.10517ZM14.2792 14.9999C14.2792 14.1864 14.9342 13.5262 15.7413 13.5262H25.9759C26.783 13.5262 27.438 14.1864 27.438 14.9999C27.438 15.8134 26.783 16.4736 25.9759 16.4736H15.7413C14.9342 16.4736 14.2792 15.8134 14.2792 14.9999ZM27.1002 22.3683H16.8656C16.0585 22.3683 15.4035 21.7096 15.4035 20.8946C15.4035 20.0797 16.0585 19.421 16.8656 19.421H27.1002C27.9073 19.421 28.5623 20.0797 28.5623 20.8946C28.5623 21.7096 27.9073 22.3683 27.1002 22.3683Z" fill="#214476"/>
</svg>
